<svg xmlns="http://www.w3.org/2000/svg" width="21" height="21" fill="#FFF" viewBox="0 0 21 21"><path d="M17.4453 6.76467L14.3211 0L13.0777 0.57426L15.9367 6.76467H5.0633L7.92225 0.57426L6.67886 0L3.55466 6.76467H0V11.6972H1.64235L3.32235 20.1385H17.6777L19.3577 11.6972H21V6.76467H17.4453ZM16.5538 18.769H4.44618L3.03877 11.6971H17.9612L16.5538 18.769ZM19.6304 10.3276H1.36955V8.13422H19.6304V10.3276Z"/><path d="M6.5804 12.7688L5.23706 13.0361L6.16387 17.693L7.50721 17.4256L6.5804 12.7688Z"/><path d="M11.3344 12.8562H9.96484V17.6036H11.3344V12.8562Z"/><path d="M14.6824 12.7686L13.7556 17.4255L15.0989 17.6928L16.0257 13.036L14.6824 12.7686Z"/></svg>