<svg xmlns="http://www.w3.org/2000/svg" width="18" height="18" fill="#FFF" viewBox="0 0 18 18"><path d="M7.29006 0C11.3098 0 14.5802 3.27031 14.5802 7.29006C14.5802 9.02888 13.9679 10.6272 12.948 11.8816L18 16.9335L16.9335 18L11.8815 12.948C10.6272 13.9679 9.02891 14.5802 7.29009 14.5802C3.27031 14.5802 0 11.3098 0 7.29006C0 3.27031 3.27031 0 7.29006 0ZM7.29006 13.0718C10.4781 13.0718 13.0718 10.4781 13.0718 7.29006C13.0718 4.102 10.4782 1.50828 7.29006 1.50828C4.10197 1.50828 1.50828 4.102 1.50828 7.29006C1.50828 10.4781 4.102 13.0718 7.29006 13.0718Z"/></svg>